<?xml version="1.0" encoding="UTF-8"?>
<svg xmlns="http://www.w3.org/2000/svg" xmlns:xlink="http://www.w3.org/1999/xlink" width="442.82pt" height="191.39pt" viewBox="0 0 442.82 191.39">
<defs>
<g>
<g id="glyph-0-0">
<path d="M 6.71875 -0.796875 C 6.71875 -0.84375 6.71875 -0.953125 6.59375 -0.953125 C 6.484375 -0.953125 6.484375 -0.875 6.46875 -0.796875 C 6.421875 -0.234375 6.15625 -0.03125 5.875 -0.03125 C 5.59375 -0.03125 5.484375 -0.203125 5.421875 -0.359375 C 5.328125 -0.546875 5.25 -1.15625 5.203125 -1.5625 C 5.125 -2.125 5.046875 -2.71875 4.0625 -3.03125 C 4.90625 -3.265625 5.609375 -3.796875 5.609375 -4.5 C 5.609375 -5.375 4.515625 -6.109375 3.203125 -6.109375 L 0.359375 -6.109375 L 0.359375 -5.828125 L 0.5625 -5.828125 C 1.25 -5.828125 1.265625 -5.734375 1.265625 -5.390625 L 1.265625 -0.703125 C 1.265625 -0.375 1.25 -0.28125 0.5625 -0.28125 L 0.359375 -0.28125 L 0.359375 0 C 0.78125 -0.03125 1.21875 -0.03125 1.65625 -0.03125 C 2.078125 -0.03125 2.53125 -0.03125 2.953125 0 L 2.953125 -0.28125 L 2.75 -0.28125 C 2.0625 -0.28125 2.046875 -0.375 2.046875 -0.703125 L 2.046875 -2.9375 L 3.125 -2.9375 C 3.765625 -2.9375 4.046875 -2.59375 4.078125 -2.5625 C 4.359375 -2.234375 4.359375 -2.09375 4.359375 -1.46875 C 4.359375 -0.859375 4.359375 -0.46875 4.78125 -0.140625 C 5.203125 0.203125 5.734375 0.203125 5.84375 0.203125 C 6.59375 0.203125 6.71875 -0.578125 6.71875 -0.796875 Z M 4.6875 -4.5 C 4.6875 -3.734375 4.296875 -3.15625 3.078125 -3.15625 L 2.046875 -3.15625 L 2.046875 -5.453125 C 2.046875 -5.6875 2.0625 -5.78125 2.234375 -5.8125 C 2.3125 -5.828125 2.59375 -5.828125 2.78125 -5.828125 C 3.5625 -5.828125 4.6875 -5.828125 4.6875 -4.5 Z M 4.6875 -4.5 "/>
</g>
<g id="glyph-0-1">
<path d="M 3.8125 -1.0625 C 3.8125 -1.125 3.765625 -1.1875 3.6875 -1.1875 C 3.609375 -1.1875 3.578125 -1.125 3.5625 -1.078125 C 3.265625 -0.171875 2.46875 -0.15625 2.328125 -0.15625 C 1.90625 -0.15625 1.53125 -0.390625 1.328125 -0.703125 C 1.03125 -1.140625 1.03125 -1.671875 1.03125 -2.046875 L 3.578125 -2.046875 C 3.765625 -2.046875 3.8125 -2.046875 3.8125 -2.234375 C 3.8125 -3.15625 3.3125 -4 2.171875 -4 C 1.09375 -4 0.265625 -3.078125 0.265625 -1.96875 C 0.265625 -0.796875 1.203125 0.09375 2.28125 0.09375 C 3.375 0.09375 3.8125 -0.859375 3.8125 -1.0625 Z M 3.203125 -2.265625 L 1.03125 -2.265625 C 1.125 -3.640625 1.921875 -3.78125 2.171875 -3.78125 C 2.65625 -3.78125 3.203125 -3.40625 3.203125 -2.265625 Z M 3.203125 -2.265625 "/>
</g>
<g id="glyph-0-2">
<path d="M 3.015625 0 L 3.015625 -0.28125 L 2.78125 -0.28125 C 2.078125 -0.28125 2.0625 -0.390625 2.0625 -0.703125 L 2.0625 -5.390625 C 2.0625 -5.71875 2.078125 -5.828125 2.78125 -5.828125 L 3.015625 -5.828125 L 3.015625 -6.109375 C 2.640625 -6.078125 2.03125 -6.078125 1.65625 -6.078125 C 1.265625 -6.078125 0.65625 -6.078125 0.296875 -6.109375 L 0.296875 -5.828125 L 0.515625 -5.828125 C 1.234375 -5.828125 1.25 -5.71875 1.25 -5.390625 L 1.25 -0.703125 C 1.25 -0.390625 1.234375 -0.28125 0.515625 -0.28125 L 0.296875 -0.28125 L 0.296875 0 C 0.65625 -0.03125 1.265625 -0.03125 1.65625 -0.03125 C 2.03125 -0.03125 2.640625 -0.03125 3.015625 0 Z M 3.015625 0 "/>
</g>
<g id="glyph-0-3">
<path d="M 7.4375 0 L 7.4375 -0.28125 C 6.984375 -0.28125 6.765625 -0.28125 6.75 -0.546875 L 6.75 -2.265625 C 6.75 -3.046875 6.75 -3.296875 6.46875 -3.625 C 6.28125 -3.84375 5.921875 -3.953125 5.5 -3.953125 C 4.859375 -3.953125 4.421875 -3.578125 4.171875 -3.09375 C 4.0625 -3.625 3.703125 -3.953125 2.953125 -3.953125 C 2.25 -3.953125 1.8125 -3.484375 1.625 -3.078125 L 1.609375 -3.078125 L 1.609375 -3.953125 L 0.3125 -3.859375 L 0.3125 -3.578125 C 0.921875 -3.578125 1 -3.515625 1 -3.078125 L 1 -0.6875 C 1 -0.28125 0.90625 -0.28125 0.3125 -0.28125 L 0.3125 0 C 0.734375 -0.015625 0.90625 -0.03125 1.328125 -0.03125 C 1.765625 -0.03125 1.875 -0.015625 2.34375 0 L 2.34375 -0.28125 C 1.765625 -0.28125 1.65625 -0.28125 1.65625 -0.6875 L 1.65625 -2.3125 C 1.65625 -3.28125 2.359375 -3.734375 2.890625 -3.734375 C 3.390625 -3.734375 3.546875 -3.375 3.546875 -2.75 L 3.546875 -0.6875 C 3.546875 -0.28125 3.453125 -0.28125 2.859375 -0.28125 L 2.859375 0 C 3.28125 -0.015625 3.453125 -0.03125 3.875 -0.03125 C 4.3125 -0.03125 4.421875 -0.015625 4.890625 0 L 4.890625 -0.28125 C 4.3125 -0.28125 4.203125 -0.28125 4.203125 -0.6875 L 4.203125 -2.3125 C 4.203125 -3.28125 4.90625 -3.734375 5.4375 -3.734375 C 5.9375 -3.734375 6.09375 -3.375 6.09375 -2.75 L 6.09375 -0.6875 C 6.09375 -0.28125 6 -0.28125 5.40625 -0.28125 L 5.40625 0 C 5.828125 -0.015625 6 -0.03125 6.421875 -0.03125 C 6.859375 -0.03125 6.96875 -0.015625 7.4375 0 Z M 7.4375 0 "/>
</g>
<g id="glyph-1-0">
<path d="M 4.125 -3.640625 C 4.15625 -3.765625 4.15625 -3.796875 4.15625 -3.828125 C 4.15625 -3.9375 4.0625 -3.953125 4.046875 -3.953125 C 3.953125 -3.953125 3.625 -3.640625 3.4375 -3.328125 C 3.296875 -3.65625 3.015625 -3.953125 2.5625 -3.953125 C 1.53125 -3.953125 0.375 -2.71875 0.375 -1.34375 C 0.375 -0.359375 1 0.09375 1.59375 0.09375 C 1.984375 0.09375 2.328125 -0.09375 2.65625 -0.40625 L 2.328125 0.96875 C 2.203125 1.421875 2.203125 1.453125 1.640625 1.453125 C 1.53125 1.453125 1.421875 1.453125 1.421875 1.625 C 1.421875 1.640625 1.421875 1.734375 1.546875 1.734375 C 1.75 1.734375 2.25 1.703125 2.453125 1.703125 C 2.75 1.703125 2.765625 1.703125 2.90625 1.71875 C 3.015625 1.71875 3.265625 1.734375 3.375 1.734375 C 3.4375 1.734375 3.546875 1.734375 3.546875 1.578125 C 3.546875 1.453125 3.453125 1.453125 3.3125 1.453125 C 2.890625 1.453125 2.890625 1.390625 2.890625 1.3125 C 2.890625 1.3125 2.890625 1.25 2.921875 1.125 Z M 2.828125 -1.09375 C 2.78125 -0.921875 2.78125 -0.90625 2.640625 -0.734375 C 2.328125 -0.359375 1.953125 -0.125 1.625 -0.125 C 1.1875 -0.125 1.03125 -0.578125 1.03125 -0.96875 C 1.03125 -1.40625 1.296875 -2.4375 1.515625 -2.859375 C 1.796875 -3.390625 2.203125 -3.734375 2.5625 -3.734375 C 3.15625 -3.734375 3.296875 -3.015625 3.296875 -2.953125 C 3.296875 -2.90625 3.28125 -2.84375 3.265625 -2.8125 Z M 2.828125 -1.09375 "/>
</g>
<g id="glyph-1-1">
<path d="M 5.5625 -3.3125 C 5.5625 -3.5625 5.46875 -3.953125 5.140625 -3.953125 C 4.921875 -3.953125 4.6875 -3.734375 4.6875 -3.5 C 4.6875 -3.359375 4.734375 -3.34375 4.8125 -3.265625 C 4.921875 -3.15625 5.140625 -2.9375 5.140625 -2.484375 C 5.140625 -1.9375 4.5625 -0.5625 3.65625 -0.5625 C 3.15625 -0.5625 2.875 -0.921875 2.78125 -1.296875 C 2.78125 -1.40625 3.09375 -2.0625 3.09375 -2.390625 C 3.09375 -2.5 3.03125 -2.609375 2.890625 -2.609375 C 2.828125 -2.609375 2.75 -2.578125 2.6875 -2.515625 C 2.515625 -2.296875 2.4375 -1.578125 2.4375 -1.34375 C 2.140625 -0.9375 1.765625 -0.578125 1.234375 -0.578125 C 0.65625 -0.578125 0.453125 -1.0625 0.453125 -1.578125 C 0.453125 -2.25 0.71875 -2.84375 1.28125 -3.609375 C 1.34375 -3.671875 1.34375 -3.703125 1.34375 -3.75 C 1.34375 -3.828125 1.265625 -3.90625 1.1875 -3.90625 C 1.09375 -3.90625 1.015625 -3.828125 0.96875 -3.765625 C 0.484375 -3.078125 0.125 -2.078125 0.125 -1.21875 C 0.125 -0.53125 0.359375 0.09375 1.15625 0.09375 C 1.71875 0.09375 2.21875 -0.390625 2.5 -0.796875 C 2.609375 -0.421875 2.828125 0.09375 3.546875 0.09375 C 4.234375 0.09375 4.6875 -0.46875 5.015625 -1.171875 C 5.1875 -1.515625 5.296875 -1.90625 5.390625 -2.265625 C 5.484375 -2.65625 5.5625 -3.03125 5.5625 -3.3125 Z M 5.5625 -3.3125 "/>
</g>
<g id="glyph-1-2">
<path d="M 2.59375 -5.578125 C 2.59375 -5.78125 2.453125 -5.90625 2.25 -5.90625 C 2.015625 -5.90625 1.765625 -5.671875 1.765625 -5.4375 C 1.765625 -5.25 1.90625 -5.109375 2.109375 -5.109375 C 2.34375 -5.109375 2.59375 -5.328125 2.59375 -5.578125 Z M 2.71875 -1.28125 C 2.71875 -1.328125 2.6875 -1.390625 2.59375 -1.390625 C 2.5 -1.390625 2.5 -1.34375 2.453125 -1.21875 C 2.25 -0.484375 1.875 -0.125 1.53125 -0.125 C 1.390625 -0.125 1.328125 -0.203125 1.328125 -0.421875 C 1.328125 -0.640625 1.390625 -0.828125 1.46875 -1 C 1.625 -1.4375 1.625 -1.453125 1.75 -1.71875 C 1.890625 -2.109375 2.078125 -2.625 2.171875 -2.875 C 2.234375 -3.03125 2.234375 -3.125 2.234375 -3.203125 C 2.234375 -3.703125 1.828125 -3.953125 1.46875 -3.953125 C 0.609375 -3.953125 0.265625 -2.671875 0.265625 -2.578125 C 0.265625 -2.5 0.328125 -2.46875 0.390625 -2.46875 C 0.484375 -2.46875 0.484375 -2.515625 0.53125 -2.640625 C 0.71875 -3.265625 1.046875 -3.734375 1.453125 -3.734375 C 1.53125 -3.734375 1.65625 -3.703125 1.65625 -3.4375 C 1.65625 -3.21875 1.578125 -2.984375 1.5 -2.78125 L 0.859375 -1.125 C 0.796875 -0.953125 0.734375 -0.8125 0.734375 -0.65625 C 0.734375 -0.234375 1.046875 0.09375 1.515625 0.09375 C 2.375 0.09375 2.71875 -1.1875 2.71875 -1.28125 Z M 2.71875 -1.28125 "/>
</g>
<g id="glyph-1-3">
<path d="M 1.625 -0.140625 C 1.625 0.15625 1.625 0.890625 0.96875 1.515625 C 0.90625 1.578125 0.90625 1.578125 0.90625 1.625 C 0.90625 1.6875 0.96875 1.71875 1.03125 1.71875 C 1.125 1.71875 1.84375 1.03125 1.84375 -0.015625 C 1.84375 -0.578125 1.65625 -0.96875 1.265625 -0.96875 C 0.96875 -0.96875 0.78125 -0.734375 0.78125 -0.484375 C 0.78125 -0.234375 0.96875 0 1.265625 0 C 1.40625 0 1.53125 -0.046875 1.625 -0.140625 Z M 1.625 -0.140625 "/>
</g>
<g id="glyph-1-4">
<path d="M 4.6875 -5.90625 C 4.71875 -6.03125 4.71875 -6.046875 4.71875 -6.078125 C 4.71875 -6.15625 4.671875 -6.203125 4.578125 -6.203125 C 4.453125 -6.203125 3.671875 -6.125 3.5 -6.109375 C 3.40625 -6.109375 3.3125 -6.09375 3.3125 -5.9375 C 3.3125 -5.828125 3.40625 -5.828125 3.546875 -5.828125 C 3.96875 -5.828125 3.96875 -5.765625 3.96875 -5.6875 C 3.96875 -5.625 3.890625 -5.3125 3.84375 -5.125 L 3.671875 -4.4375 C 3.578125 -4.09375 3.5 -3.75 3.421875 -3.390625 C 3.25 -3.71875 2.96875 -3.953125 2.5625 -3.953125 C 1.53125 -3.953125 0.375 -2.71875 0.375 -1.34375 C 0.375 -0.359375 1 0.09375 1.59375 0.09375 C 2.1875 0.09375 2.65625 -0.390625 2.796875 -0.546875 C 2.890625 -0.0625 3.34375 0.09375 3.625 0.09375 C 3.890625 0.09375 4.109375 -0.015625 4.3125 -0.390625 C 4.46875 -0.6875 4.59375 -1.25 4.59375 -1.28125 C 4.59375 -1.328125 4.5625 -1.390625 4.484375 -1.390625 C 4.375 -1.390625 4.359375 -1.34375 4.328125 -1.171875 C 4.125 -0.390625 3.9375 -0.125 3.65625 -0.125 C 3.4375 -0.125 3.375 -0.34375 3.375 -0.53125 C 3.375 -0.65625 3.421875 -0.90625 3.4375 -0.921875 Z M 2.828125 -1.078125 C 2.796875 -0.9375 2.78125 -0.921875 2.640625 -0.734375 C 2.328125 -0.359375 1.953125 -0.125 1.625 -0.125 C 1.1875 -0.125 1.03125 -0.578125 1.03125 -0.96875 C 1.03125 -1.40625 1.296875 -2.4375 1.515625 -2.859375 C 1.796875 -3.390625 2.203125 -3.734375 2.5625 -3.734375 C 3.15625 -3.734375 3.296875 -3 3.296875 -2.953125 C 3.296875 -2.90625 3.28125 -2.859375 3.265625 -2.828125 Z M 2.828125 -1.078125 "/>
</g>
<g id="glyph-2-0">
<path d="M 3.28125 -1.90625 C 3.28125 -2.328125 3.28125 -3.953125 1.8125 -3.953125 C 0.359375 -3.953125 0.359375 -2.328125 0.359375 -1.90625 C 0.359375 -1.46875 0.359375 0.125 1.8125 0.125 C 3.28125 0.125 3.28125 -1.46875 3.28125 -1.90625 Z M 1.8125 -0.0625 C 1.5625 -0.0625 1.15625 -0.1875 1.015625 -0.671875 C 0.921875 -1.03125 0.921875 -1.609375 0.921875 -1.96875 C 0.921875 -2.375 0.921875 -2.828125 1 -3.15625 C 1.15625 -3.6875 1.609375 -3.765625 1.8125 -3.765625 C 2.09375 -3.765625 2.484375 -3.640625 2.609375 -3.1875 C 2.703125 -2.875 2.703125 -2.4375 2.703125 -1.96875 C 2.703125 -1.59375 2.703125 -1 2.609375 -0.65625 C 2.4375 -0.140625 2.015625 -0.0625 1.8125 -0.0625 Z M 1.8125 -0.0625 "/>
</g>
<g id="glyph-3-0">
<path d="M 4.578125 -1.40625 C 4.578125 -1.453125 4.546875 -1.46875 4.5 -1.46875 C 4.40625 -1.46875 4.015625 -1.359375 3.8125 -1.0625 C 3.59375 -0.734375 3.21875 -0.28125 2.484375 -0.28125 C 1.65625 -0.28125 0.90625 -0.890625 0.90625 -2.25 C 0.90625 -2.84375 1.09375 -4.03125 1.890625 -5.015625 C 2.28125 -5.515625 2.8125 -5.796875 3.53125 -5.796875 C 3.953125 -5.796875 4.109375 -5.640625 4.109375 -5.328125 C 4.109375 -5 3.734375 -4.328125 3.6875 -4.25 C 3.625 -4.125 3.625 -4.109375 3.625 -4.078125 C 3.625 -4.03125 3.671875 -4.015625 3.703125 -4.015625 C 3.859375 -4.015625 4.234375 -4.203125 4.359375 -4.40625 C 4.390625 -4.453125 4.890625 -5.296875 4.890625 -5.71875 C 4.890625 -6.125 4.640625 -6.296875 4.140625 -6.296875 C 3.078125 -6.296875 2 -5.71875 1.3125 -4.9375 C 0.453125 -3.96875 0.125 -2.671875 0.125 -1.84375 C 0.125 -0.484375 0.859375 0.21875 1.875 0.21875 C 3.359375 0.21875 4.578125 -1.203125 4.578125 -1.40625 Z M 4.578125 -1.40625 "/>
</g>
<g id="glyph-3-1">
<path d="M 6.03125 -2.046875 C 6.1875 -2.046875 6.359375 -2.046875 6.359375 -2.25 C 6.359375 -2.4375 6.1875 -2.4375 6.03125 -2.4375 L 1.09375 -2.4375 C 0.953125 -2.4375 0.765625 -2.4375 0.765625 -2.25 C 0.765625 -2.046875 0.9375 -2.046875 1.09375 -2.046875 Z M 6.03125 -2.046875 "/>
</g>
<g id="glyph-4-0">
<path d="M 5.15625 -0.546875 C 5.15625 -0.59375 5.15625 -0.671875 5.03125 -0.671875 C 4.9375 -0.671875 4.9375 -0.609375 4.921875 -0.546875 C 4.90625 -0.265625 4.734375 -0.0625 4.5 -0.0625 C 4.15625 -0.0625 4.078125 -0.421875 4.03125 -0.796875 L 3.984375 -1.28125 C 3.90625 -1.75 3.53125 -1.9375 3.234375 -2.03125 C 3.78125 -2.171875 4.296875 -2.515625 4.296875 -2.984375 C 4.296875 -3.59375 3.453125 -4.0625 2.5 -4.0625 L 0.40625 -4.0625 L 0.40625 -3.828125 L 0.546875 -3.828125 C 1.03125 -3.828125 1.03125 -3.765625 1.03125 -3.5625 L 1.03125 -0.5 C 1.03125 -0.296875 1.03125 -0.234375 0.546875 -0.234375 L 0.40625 -0.234375 L 0.40625 0 L 1.3125 -0.03125 L 2.234375 0 L 2.234375 -0.234375 L 2.078125 -0.234375 C 1.59375 -0.234375 1.59375 -0.296875 1.59375 -0.5 L 1.59375 -1.9375 L 2.453125 -1.9375 C 2.765625 -1.9375 3 -1.84375 3.15625 -1.71875 C 3.375 -1.53125 3.375 -1.390625 3.375 -0.96875 C 3.375 -0.578125 3.375 -0.328125 3.703125 -0.078125 C 3.859375 0.03125 4.15625 0.125 4.46875 0.125 C 4.984375 0.125 5.15625 -0.328125 5.15625 -0.546875 Z M 3.640625 -2.984375 C 3.640625 -2.328125 3.09375 -2.125 2.4375 -2.125 L 1.59375 -2.125 L 1.59375 -3.609375 C 1.59375 -3.765625 1.609375 -3.8125 1.765625 -3.828125 C 1.8125 -3.828125 2.03125 -3.828125 2.171875 -3.828125 C 2.78125 -3.828125 3.640625 -3.828125 3.640625 -2.984375 Z M 3.640625 -2.984375 "/>
</g>
<g id="glyph-5-0">
<path d="M 2.078125 -3.71875 C 2.078125 -3.859375 1.96875 -3.953125 1.828125 -3.953125 C 1.671875 -3.953125 1.5 -3.796875 1.5 -3.625 C 1.5 -3.484375 1.59375 -3.390625 1.734375 -3.390625 C 1.921875 -3.390625 2.078125 -3.5625 2.078125 -3.71875 Z M 1.71875 -1.640625 C 1.734375 -1.703125 1.796875 -1.84375 1.8125 -1.890625 C 1.828125 -1.953125 1.859375 -2 1.859375 -2.109375 C 1.859375 -2.4375 1.5625 -2.625 1.265625 -2.625 C 0.65625 -2.625 0.359375 -1.84375 0.359375 -1.703125 C 0.359375 -1.671875 0.390625 -1.625 0.46875 -1.625 C 0.546875 -1.625 0.578125 -1.65625 0.59375 -1.71875 C 0.75 -2.296875 1.078125 -2.421875 1.234375 -2.421875 C 1.359375 -2.421875 1.40625 -2.34375 1.40625 -2.21875 C 1.40625 -2.09375 1.359375 -2 1.34375 -1.96875 L 1.046875 -1.203125 C 0.96875 -1.03125 0.96875 -1.015625 0.890625 -0.8125 C 0.8125 -0.640625 0.78125 -0.5625 0.78125 -0.453125 C 0.78125 -0.15625 1.0625 0.0625 1.390625 0.0625 C 1.984375 0.0625 2.28125 -0.71875 2.28125 -0.859375 C 2.28125 -0.875 2.28125 -0.9375 2.171875 -0.9375 C 2.09375 -0.9375 2.078125 -0.90625 2.046875 -0.796875 C 1.953125 -0.5 1.703125 -0.140625 1.40625 -0.140625 C 1.296875 -0.140625 1.25 -0.203125 1.25 -0.34375 C 1.25 -0.46875 1.28125 -0.5625 1.359375 -0.75 Z M 1.71875 -1.640625 "/>
</g>
<g id="glyph-5-1">
<path d="M 3.609375 -3.953125 C 3.609375 -3.984375 3.625 -4.015625 3.625 -4.046875 C 3.625 -4.140625 3.5 -4.125 3.421875 -4.125 L 2.765625 -4.078125 C 2.65625 -4.0625 2.578125 -4.0625 2.578125 -3.921875 C 2.578125 -3.828125 2.65625 -3.828125 2.75 -3.828125 C 2.921875 -3.828125 2.96875 -3.8125 3.046875 -3.78125 C 3.046875 -3.703125 3.046875 -3.6875 3.03125 -3.609375 C 2.90625 -3.09375 2.796875 -2.703125 2.6875 -2.265625 C 2.59375 -2.40625 2.40625 -2.625 2.03125 -2.625 C 1.265625 -2.625 0.453125 -1.828125 0.453125 -0.953125 C 0.453125 -0.3125 0.90625 0.0625 1.40625 0.0625 C 1.796875 0.0625 2.140625 -0.21875 2.296875 -0.359375 C 2.40625 0.015625 2.796875 0.0625 2.9375 0.0625 C 3.15625 0.0625 3.296875 -0.0625 3.421875 -0.25 C 3.5625 -0.484375 3.65625 -0.828125 3.65625 -0.859375 C 3.65625 -0.875 3.640625 -0.9375 3.53125 -0.9375 C 3.453125 -0.9375 3.4375 -0.90625 3.40625 -0.796875 C 3.3125 -0.4375 3.1875 -0.140625 2.953125 -0.140625 C 2.75 -0.140625 2.734375 -0.34375 2.734375 -0.4375 C 2.734375 -0.515625 2.734375 -0.53125 2.765625 -0.640625 Z M 2.3125 -0.78125 C 2.28125 -0.671875 2.28125 -0.65625 2.203125 -0.578125 C 1.875 -0.203125 1.578125 -0.140625 1.421875 -0.140625 C 1.1875 -0.140625 0.953125 -0.296875 0.953125 -0.71875 C 0.953125 -0.96875 1.078125 -1.546875 1.265625 -1.890625 C 1.453125 -2.203125 1.75 -2.421875 2.03125 -2.421875 C 2.484375 -2.421875 2.59375 -1.953125 2.59375 -1.921875 L 2.578125 -1.828125 Z M 2.3125 -0.78125 "/>
</g>
<g id="glyph-6-0">
<path d="M 6.3125 -2.046875 C 6.4375 -2.046875 6.625 -2.046875 6.625 -2.234375 C 6.625 -2.4375 6.453125 -2.4375 6.3125 -2.4375 L 3.765625 -2.4375 L 3.765625 -4.984375 C 3.765625 -5.125 3.765625 -5.296875 3.5625 -5.296875 C 3.375 -5.296875 3.375 -5.109375 3.375 -4.984375 L 3.375 -2.4375 L 0.828125 -2.4375 C 0.703125 -2.4375 0.515625 -2.4375 0.515625 -2.25 C 0.515625 -2.046875 0.671875 -2.046875 0.828125 -2.046875 L 3.375 -2.046875 L 3.375 0.515625 C 3.375 0.65625 3.375 0.828125 3.578125 0.828125 C 3.765625 0.828125 3.765625 0.640625 3.765625 0.515625 L 3.765625 -2.046875 Z M 6.3125 -2.046875 "/>
</g>
<g id="glyph-6-1">
<path d="M 4.234375 -2.859375 C 4.234375 -3.453125 4.203125 -4.234375 3.890625 -4.890625 C 3.5 -5.734375 2.8125 -5.953125 2.296875 -5.953125 C 1.765625 -5.953125 1.078125 -5.734375 0.6875 -4.875 C 0.40625 -4.265625 0.359375 -3.546875 0.359375 -2.859375 C 0.359375 -2.28125 0.375 -1.40625 0.765625 -0.703125 C 1.1875 0.046875 1.875 0.203125 2.28125 0.203125 C 2.875 0.203125 3.53125 -0.046875 3.90625 -0.875 C 4.171875 -1.46875 4.234375 -2.140625 4.234375 -2.859375 Z M 2.296875 -0.03125 C 2.03125 -0.03125 1.390625 -0.15625 1.21875 -1.15625 C 1.125 -1.6875 1.125 -2.453125 1.125 -2.96875 C 1.125 -3.578125 1.125 -4.28125 1.234375 -4.765625 C 1.40625 -5.5625 1.984375 -5.734375 2.28125 -5.734375 C 2.625 -5.734375 3.1875 -5.546875 3.359375 -4.71875 C 3.453125 -4.234375 3.453125 -3.53125 3.453125 -2.96875 C 3.453125 -2.40625 3.453125 -1.65625 3.375 -1.140625 C 3.1875 -0.109375 2.515625 -0.03125 2.296875 -0.03125 Z M 2.296875 -0.03125 "/>
</g>
<g id="glyph-6-2">
<path d="M 6.328125 -2.953125 C 6.453125 -2.953125 6.625 -2.953125 6.625 -3.140625 C 6.625 -3.34375 6.421875 -3.34375 6.296875 -3.34375 L 0.84375 -3.34375 C 0.703125 -3.34375 0.515625 -3.34375 0.515625 -3.140625 C 0.515625 -2.953125 0.6875 -2.953125 0.796875 -2.953125 Z M 6.296875 -1.140625 C 6.421875 -1.140625 6.625 -1.140625 6.625 -1.328125 C 6.625 -1.515625 6.453125 -1.515625 6.328125 -1.515625 L 0.796875 -1.515625 C 0.6875 -1.515625 0.515625 -1.515625 0.515625 -1.328125 C 0.515625 -1.140625 0.703125 -1.140625 0.84375 -1.140625 Z M 6.296875 -1.140625 "/>
</g>
<g id="glyph-6-3">
<path d="M 3.953125 -4.984375 L 3.953125 -5.296875 L 0.640625 -5.296875 L 0.640625 -4.984375 Z M 3.953125 -4.984375 "/>
</g>
<g id="glyph-7-0">
<path d="M 5.15625 -2.0625 C 5.226562 -2.488281 5.265625 -2.941406 5.265625 -3.421875 C 5.265625 -3.910156 5.257812 -4.328125 5.25 -4.671875 L 3.5625 -4.671875 C 3.320312 -4.671875 3.117188 -4.640625 2.953125 -4.578125 L 2.625 -4.984375 C 2.851562 -4.941406 3.101562 -4.921875 3.375 -4.921875 L 5.984375 -4.921875 L 6.734375 -6.84375 L 7.40625 -6.34375 C 7.457031 -6.3125 7.484375 -6.265625 7.484375 -6.203125 C 7.484375 -6.148438 7.425781 -6.109375 7.3125 -6.078125 C 7.195312 -6.054688 7.0625 -5.96875 6.90625 -5.8125 C 6.757812 -5.65625 6.535156 -5.359375 6.234375 -4.921875 L 7.453125 -4.921875 L 7.921875 -5.5 L 8.515625 -4.828125 C 8.535156 -4.785156 8.546875 -4.75 8.546875 -4.71875 C 8.546875 -4.6875 8.507812 -4.671875 8.4375 -4.671875 L 5.90625 -4.671875 C 5.882812 -3.335938 5.835938 -2.46875 5.765625 -2.0625 L 7.046875 -2.0625 L 7.046875 -3.390625 C 7.046875 -3.578125 7.03125 -3.851562 7 -4.21875 L 7.78125 -3.859375 C 7.832031 -3.828125 7.859375 -3.796875 7.859375 -3.765625 C 7.859375 -3.734375 7.835938 -3.691406 7.796875 -3.640625 L 7.671875 -3.484375 L 7.671875 -2.734375 C 7.671875 -2.546875 7.675781 -2.34375 7.6875 -2.125 L 7.734375 -1.609375 C 7.734375 -1.523438 7.640625 -1.445312 7.453125 -1.375 C 7.265625 -1.300781 7.148438 -1.265625 7.109375 -1.265625 C 7.066406 -1.265625 7.046875 -1.332031 7.046875 -1.46875 L 7.046875 -1.8125 L 5.703125 -1.8125 C 5.398438 -0.75 4.488281 -0.0351562 2.96875 0.328125 L 2.890625 0.203125 C 4.160156 -0.296875 4.894531 -0.96875 5.09375 -1.8125 L 4.15625 -1.8125 L 3.96875 -1.453125 C 3.945312 -1.410156 3.914062 -1.390625 3.875 -1.390625 C 3.84375 -1.390625 3.789062 -1.414062 3.71875 -1.46875 L 3.28125 -1.796875 C 3.40625 -1.867188 3.484375 -1.929688 3.515625 -1.984375 C 3.546875 -2.046875 3.5625 -2.144531 3.5625 -2.28125 L 3.5625 -3.390625 C 3.5625 -3.628906 3.546875 -3.90625 3.515625 -4.21875 L 4.3125 -3.828125 C 4.382812 -3.804688 4.421875 -3.78125 4.421875 -3.75 C 4.421875 -3.71875 4.390625 -3.679688 4.328125 -3.640625 L 4.171875 -3.515625 L 4.171875 -2.0625 Z M 4.03125 -6.65625 C 4.375 -6.445312 4.632812 -6.257812 4.8125 -6.09375 C 4.988281 -5.9375 5.078125 -5.800781 5.078125 -5.6875 C 5.078125 -5.488281 5.039062 -5.332031 4.96875 -5.21875 C 4.90625 -5.113281 4.804688 -5.0625 4.671875 -5.0625 C 4.546875 -5.0625 4.460938 -5.195312 4.421875 -5.46875 C 4.390625 -5.625 4.320312 -5.804688 4.21875 -6.015625 C 4.125 -6.222656 4.023438 -6.394531 3.921875 -6.53125 Z M 1.109375 -6.375 C 1.585938 -6.175781 1.921875 -5.992188 2.109375 -5.828125 C 2.296875 -5.671875 2.390625 -5.515625 2.390625 -5.359375 C 2.390625 -5.203125 2.34375 -5.0625 2.25 -4.9375 C 2.164062 -4.820312 2.066406 -4.765625 1.953125 -4.765625 C 1.804688 -4.765625 1.71875 -4.863281 1.6875 -5.0625 C 1.613281 -5.4375 1.398438 -5.847656 1.046875 -6.296875 Z M 2.40625 0.046875 C 2.644531 0.242188 2.929688 0.382812 3.265625 0.46875 C 3.597656 0.5625 4.046875 0.609375 4.609375 0.609375 C 6.078125 0.609375 7.414062 0.515625 8.625 0.328125 L 8.640625 0.453125 C 8.484375 0.523438 8.363281 0.601562 8.28125 0.6875 C 8.195312 0.769531 8.140625 0.882812 8.109375 1.03125 C 8.109375 1.09375 8.078125 1.125 8.015625 1.125 C 7.953125 1.132812 7.628906 1.144531 7.046875 1.15625 C 6.472656 1.164062 6.054688 1.171875 5.796875 1.171875 C 4.804688 1.171875 4.0625 1.125 3.5625 1.03125 C 3.070312 0.9375 2.71875 0.773438 2.5 0.546875 C 2.28125 0.328125 2.082031 0.21875 1.90625 0.21875 C 1.8125 0.21875 1.703125 0.273438 1.578125 0.390625 C 1.453125 0.503906 1.273438 0.734375 1.046875 1.078125 C 0.992188 1.148438 0.957031 1.1875 0.9375 1.1875 C 0.914062 1.1875 0.882812 1.164062 0.84375 1.125 L 0.390625 0.546875 C 1.085938 0.160156 1.554688 -0.0703125 1.796875 -0.15625 L 1.796875 -2.875 L 1.203125 -2.875 C 0.890625 -2.875 0.6875 -2.835938 0.59375 -2.765625 L 0.28125 -3.171875 C 0.5 -3.140625 0.75 -3.125 1.03125 -3.125 L 1.765625 -3.125 L 2.109375 -3.546875 L 2.59375 -3.078125 C 2.675781 -3.003906 2.71875 -2.953125 2.71875 -2.921875 C 2.71875 -2.890625 2.679688 -2.859375 2.609375 -2.828125 L 2.40625 -2.71875 Z M 2.40625 0.046875 "/>
</g>
<g id="glyph-7-1">
<path d="M 7.140625 -4.375 L 7.140625 0.078125 C 7.140625 0.410156 7.113281 0.632812 7.0625 0.75 C 7.007812 0.863281 6.851562 1 6.59375 1.15625 C 6.34375 1.320312 6.191406 1.40625 6.140625 1.40625 C 6.085938 1.40625 6.054688 1.351562 6.046875 1.25 C 6.035156 0.988281 5.929688 0.804688 5.734375 0.703125 C 5.546875 0.597656 5.253906 0.503906 4.859375 0.421875 L 4.875 0.28125 C 5.257812 0.332031 5.570312 0.359375 5.8125 0.359375 C 6.269531 0.359375 6.5 0.242188 6.5 0.015625 L 6.5 -4.375 L 4.5 -4.375 C 4.25 -4.375 4.046875 -4.34375 3.890625 -4.28125 L 3.578125 -4.65625 C 3.804688 -4.625 4.050781 -4.609375 4.3125 -4.609375 L 6.5 -4.609375 L 6.5 -5.5 C 6.5 -5.957031 6.488281 -6.4375 6.46875 -6.9375 L 7.390625 -6.59375 C 7.441406 -6.570312 7.46875 -6.546875 7.46875 -6.515625 C 7.46875 -6.484375 7.429688 -6.453125 7.359375 -6.421875 L 7.140625 -6.28125 L 7.140625 -4.609375 L 7.46875 -4.609375 L 8 -5.25 L 8.59375 -4.5625 C 8.625 -4.519531 8.640625 -4.476562 8.640625 -4.4375 C 8.640625 -4.394531 8.601562 -4.375 8.53125 -4.375 Z M 1.671875 -5.625 L 2.8125 -5.625 L 3.09375 -6.03125 L 3.671875 -5.515625 C 3.710938 -5.472656 3.734375 -5.4375 3.734375 -5.40625 C 3.734375 -5.375 3.710938 -5.34375 3.671875 -5.3125 L 3.4375 -5.1875 L 3.4375 -1.28125 C 3.4375 -1.0625 3.441406 -0.859375 3.453125 -0.671875 L 3.484375 -0.28125 C 3.484375 -0.164062 3.394531 -0.0703125 3.21875 0 C 3.050781 0.0820312 2.941406 0.125 2.890625 0.125 C 2.847656 0.125 2.828125 0.0859375 2.828125 0.015625 L 2.828125 -0.59375 L 1.546875 -0.59375 L 1.546875 -0.0625 C 1.546875 0.0703125 1.457031 0.175781 1.28125 0.25 C 1.113281 0.332031 1.003906 0.375 0.953125 0.375 C 0.910156 0.375 0.878906 0.351562 0.859375 0.3125 C 0.835938 0.269531 0.832031 0.191406 0.84375 0.078125 C 0.894531 -0.410156 0.921875 -0.878906 0.921875 -1.328125 L 0.921875 -4.984375 C 0.921875 -5.367188 0.914062 -5.726562 0.90625 -6.0625 Z M 2.828125 -3.3125 L 2.828125 -5.375 L 1.546875 -5.375 L 1.546875 -3.3125 Z M 2.828125 -0.84375 L 2.828125 -3.078125 L 1.546875 -3.078125 L 1.546875 -0.84375 Z M 4.296875 -3.484375 C 5.066406 -2.960938 5.453125 -2.492188 5.453125 -2.078125 C 5.453125 -1.921875 5.40625 -1.769531 5.3125 -1.625 C 5.226562 -1.476562 5.128906 -1.40625 5.015625 -1.40625 C 4.910156 -1.40625 4.835938 -1.441406 4.796875 -1.515625 C 4.765625 -1.597656 4.738281 -1.75 4.71875 -1.96875 C 4.707031 -2.1875 4.65625 -2.425781 4.5625 -2.6875 C 4.476562 -2.957031 4.363281 -3.191406 4.21875 -3.390625 Z M 4.296875 -3.484375 "/>
</g>
<g id="glyph-7-2">
<path d="M 1.890625 -5.171875 C 1.617188 -4.648438 1.375 -4.242188 1.15625 -3.953125 L 2.71875 -3.953125 L 3.171875 -4.484375 L 3.640625 -3.921875 C 3.691406 -3.859375 3.71875 -3.8125 3.71875 -3.78125 C 3.71875 -3.75 3.671875 -3.734375 3.578125 -3.734375 L 2.4375 -3.734375 L 2.4375 -2.40625 L 3.140625 -2.40625 L 3.578125 -2.9375 L 4.078125 -2.328125 C 4.128906 -2.273438 4.15625 -2.234375 4.15625 -2.203125 C 4.15625 -2.171875 4.109375 -2.15625 4.015625 -2.15625 L 2.4375 -2.15625 L 2.4375 0 L 3.984375 -0.984375 L 4.078125 -0.859375 L 2.8125 0.28125 C 2.4375 0.632812 2.203125 0.882812 2.109375 1.03125 C 2.066406 1.09375 2.03125 1.125 2 1.125 C 1.96875 1.125 1.925781 1.085938 1.875 1.015625 L 1.515625 0.59375 C 1.628906 0.5 1.707031 0.398438 1.75 0.296875 C 1.800781 0.203125 1.828125 0.0703125 1.828125 -0.09375 L 1.828125 -2.15625 L 1.28125 -2.15625 C 1.019531 -2.15625 0.816406 -2.128906 0.671875 -2.078125 L 0.34375 -2.453125 C 0.5625 -2.421875 0.804688 -2.40625 1.078125 -2.40625 L 1.828125 -2.40625 L 1.828125 -3.734375 L 0.96875 -3.734375 C 0.800781 -3.503906 0.628906 -3.289062 0.453125 -3.09375 L 0.328125 -3.1875 C 1.097656 -4.445312 1.601562 -5.734375 1.84375 -7.046875 L 2.578125 -6.734375 C 2.691406 -6.679688 2.75 -6.625 2.75 -6.5625 C 2.75 -6.507812 2.6875 -6.460938 2.5625 -6.421875 C 2.476562 -6.390625 2.394531 -6.28125 2.3125 -6.09375 L 2 -5.421875 L 3.046875 -5.421875 L 3.5 -5.921875 L 4 -5.3125 C 4.039062 -5.269531 4.0625 -5.234375 4.0625 -5.203125 C 4.0625 -5.179688 4.03125 -5.171875 3.96875 -5.171875 Z M 6.359375 -3.78125 L 7.40625 -3.78125 L 7.953125 -4.421875 L 8.5625 -3.6875 C 8.59375 -3.644531 8.609375 -3.609375 8.609375 -3.578125 C 8.609375 -3.546875 8.570312 -3.53125 8.5 -3.53125 L 6.359375 -3.53125 L 6.359375 -0.8125 C 6.359375 -0.207031 6.359375 0.21875 6.359375 0.46875 C 6.367188 0.71875 6.375 0.867188 6.375 0.921875 C 6.375 0.984375 6.351562 1.035156 6.3125 1.078125 C 6.269531 1.128906 6.175781 1.179688 6.03125 1.234375 C 5.894531 1.285156 5.796875 1.3125 5.734375 1.3125 C 5.671875 1.3125 5.640625 1.253906 5.640625 1.140625 L 5.6875 0.203125 C 5.707031 -0.222656 5.71875 -0.628906 5.71875 -1.015625 L 5.71875 -3.53125 L 4.78125 -3.53125 C 4.539062 -3.53125 4.335938 -3.5 4.171875 -3.4375 L 3.828125 -3.828125 C 4.054688 -3.796875 4.304688 -3.78125 4.578125 -3.78125 L 5.71875 -3.78125 L 5.71875 -5.484375 C 5.71875 -6.078125 5.703125 -6.570312 5.671875 -6.96875 L 6.609375 -6.5625 C 6.679688 -6.53125 6.71875 -6.5 6.71875 -6.46875 C 6.71875 -6.4375 6.679688 -6.394531 6.609375 -6.34375 L 6.359375 -6.171875 Z M 6.359375 -3.78125 "/>
</g>
</g>
</defs>
<path fill="none" stroke-width="0.44832" stroke-linecap="round" stroke-linejoin="round" stroke="rgb(61.999512%, 61.999512%, 61.999512%)" stroke-opacity="1" stroke-miterlimit="10" d="M -175.750751 0.000565756 L 175.302073 0.000565756 " transform="matrix(0.996823, 0, 0, -0.996823, 221.321283, 90.164626)"/>
<path fill="none" stroke-width="0.44832" stroke-linecap="round" stroke-linejoin="round" stroke="rgb(61.999512%, 61.999512%, 61.999512%)" stroke-opacity="1" stroke-miterlimit="10" d="M -2.132304 2.481103 C -1.744353 0.991997 -0.874401 0.29055 -0.000531315 0.000565756 C -0.874401 -0.289418 -1.744353 -0.990865 -2.132304 -2.479971 " transform="matrix(0.996823, 0, 0, -0.996823, 396.289592, 90.164626)"/>
<path fill="none" stroke-width="0.44832" stroke-linecap="round" stroke-linejoin="round" stroke="rgb(61.999512%, 61.999512%, 61.999512%)" stroke-opacity="1" stroke-miterlimit="10" d="M -0.000973353 -72.283775 L -0.000973353 73.252826 " transform="matrix(0.996823, 0, 0, -0.996823, 221.321283, 90.164626)"/>
<path fill="none" stroke-width="0.44832" stroke-linecap="round" stroke-linejoin="round" stroke="rgb(61.999512%, 61.999512%, 61.999512%)" stroke-opacity="1" stroke-miterlimit="10" d="M -2.133281 2.48151 C -1.741411 0.992404 -0.875379 0.290957 -0.00150856 0.000973353 C -0.875379 -0.28901 -1.741411 -0.990458 -2.133281 -2.479564 " transform="matrix(0, -0.996823, -0.996823, 0, 221.321283, 16.920371)"/>
<g fill="rgb(0%, 0%, 0%)" fill-opacity="1">
<use xlink:href="#glyph-0-0" x="400.735452" y="93.114225"/>
<use xlink:href="#glyph-0-1" x="407.492514" y="93.114225"/>
</g>
<g fill="rgb(0%, 0%, 0%)" fill-opacity="1">
<use xlink:href="#glyph-1-0" x="413.108018" y="93.114225"/>
</g>
<g fill="rgb(0%, 0%, 0%)" fill-opacity="1">
<use xlink:href="#glyph-2-0" x="417.532915" y="89.317327"/>
</g>
<g fill="rgb(0%, 0%, 0%)" fill-opacity="1">
<use xlink:href="#glyph-0-2" x="210.790845" y="10.453682"/>
<use xlink:href="#glyph-0-3" x="214.106811" y="10.453682"/>
</g>
<g fill="rgb(0%, 0%, 0%)" fill-opacity="1">
<use xlink:href="#glyph-1-0" x="223.288014" y="10.453682"/>
</g>
<g fill="rgb(0%, 0%, 0%)" fill-opacity="1">
<use xlink:href="#glyph-2-0" x="227.713908" y="6.656783"/>
</g>
<path fill="none" stroke-width="0.84683" stroke-linecap="round" stroke-linejoin="round" stroke="rgb(0%, 0%, 0%)" stroke-opacity="1" stroke-miterlimit="10" d="M -164.410033 0.000565756 L 164.412005 0.000565756 " transform="matrix(0.996823, 0, 0, -0.996823, 221.321283, 90.164626)"/>
<path fill-rule="nonzero" fill="rgb(0%, 0%, 0%)" fill-opacity="1" d="M 116.769531 90.164062 L 112.25 88.046875 L 112.25 92.285156 Z M 116.769531 90.164062 "/>
<path fill-rule="nonzero" fill="rgb(0%, 0%, 0%)" fill-opacity="1" d="M 325.871094 90.164062 L 321.351562 88.046875 L 321.351562 92.285156 Z M 325.871094 90.164062 "/>
<path fill="none" stroke-width="0.84683" stroke-linecap="round" stroke-linejoin="round" stroke="rgb(16.471863%, 33.724976%, 50.193787%)" stroke-opacity="1" stroke-dasharray="2.98883 1.99255" stroke-miterlimit="10" d="M -0.000973353 -66.613416 L -0.000973353 66.614548 " transform="matrix(0.996823, 0, 0, -0.996823, 221.321283, 90.164626)"/>
<path fill-rule="nonzero" fill="rgb(16.499329%, 33.699036%, 50.19989%)" fill-opacity="1" d="M 221.320312 129.722656 L 219.203125 134.246094 L 223.441406 134.246094 Z M 221.320312 129.722656 "/>
<path fill-rule="nonzero" fill="rgb(16.499329%, 33.699036%, 50.19989%)" fill-opacity="1" d="M 221.320312 50.605469 L 219.203125 55.125 L 223.441406 55.125 Z M 221.320312 50.605469 "/>
<g fill="rgb(0%, 0%, 0%)" fill-opacity="1">
<use xlink:href="#glyph-3-0" x="81.797973" y="105.016291"/>
</g>
<g fill="rgb(0%, 0%, 0%)" fill-opacity="1">
<use xlink:href="#glyph-4-0" x="86.647516" y="106.009127"/>
</g>
<g fill="rgb(16.499329%, 33.699036%, 50.19989%)" fill-opacity="1">
<use xlink:href="#glyph-3-0" x="232.04311" y="54.795356"/>
</g>
<g fill="rgb(16.499329%, 33.699036%, 50.19989%)" fill-opacity="1">
<use xlink:href="#glyph-5-0" x="236.892654" y="55.788191"/>
</g>
<g fill="rgb(16.499329%, 33.699036%, 50.19989%)" fill-opacity="1">
<use xlink:href="#glyph-4-0" x="239.547193" y="55.788191"/>
</g>
<path fill="none" stroke-width="0.84683" stroke-linecap="round" stroke-linejoin="round" stroke="rgb(0%, 0%, 0%)" stroke-opacity="1" stroke-miterlimit="10" d="M -82.771756 5.670925 L -75.968892 12.473788 " transform="matrix(0.996823, 0, 0, -0.996823, 221.321283, 90.164626)"/>
<path fill="none" stroke-width="0.84683" stroke-linecap="round" stroke-linejoin="round" stroke="rgb(0%, 0%, 0%)" stroke-opacity="1" stroke-miterlimit="10" d="M -82.771756 12.473788 L -75.968892 5.670925 " transform="matrix(0.996823, 0, 0, -0.996823, 221.321283, 90.164626)"/>
<path fill="none" stroke-width="0.84683" stroke-linecap="round" stroke-linejoin="round" stroke="rgb(0%, 0%, 0%)" stroke-opacity="1" stroke-miterlimit="10" d="M 75.970864 -12.472656 L 82.773728 -5.669793 " transform="matrix(0.996823, 0, 0, -0.996823, 221.321283, 90.164626)"/>
<path fill="none" stroke-width="0.84683" stroke-linecap="round" stroke-linejoin="round" stroke="rgb(0%, 0%, 0%)" stroke-opacity="1" stroke-miterlimit="10" d="M 75.970864 -5.669793 L 82.773728 -12.472656 " transform="matrix(0.996823, 0, 0, -0.996823, 221.321283, 90.164626)"/>
<g fill="rgb(0%, 0%, 0%)" fill-opacity="1">
<use xlink:href="#glyph-3-1" x="126.129678" y="70.138454"/>
</g>
<g fill="rgb(0%, 0%, 0%)" fill-opacity="1">
<use xlink:href="#glyph-1-1" x="133.273908" y="70.138454"/>
</g>
<g fill="rgb(0%, 0%, 0%)" fill-opacity="1">
<use xlink:href="#glyph-6-0" x="141.351164" y="70.138454"/>
</g>
<g fill="rgb(0%, 0%, 0%)" fill-opacity="1">
<use xlink:href="#glyph-1-2" x="150.536887" y="70.138454"/>
</g>
<g fill="rgb(0%, 0%, 0%)" fill-opacity="1">
<use xlink:href="#glyph-6-1" x="153.680867" y="70.138454"/>
</g>
<g fill="rgb(0%, 0%, 0%)" fill-opacity="1">
<use xlink:href="#glyph-6-0" x="284.368339" y="115.26064"/>
</g>
<g fill="rgb(0%, 0%, 0%)" fill-opacity="1">
<use xlink:href="#glyph-1-1" x="291.512568" y="115.26064"/>
</g>
<g fill="rgb(0%, 0%, 0%)" fill-opacity="1">
<use xlink:href="#glyph-3-1" x="299.589825" y="115.26064"/>
</g>
<g fill="rgb(0%, 0%, 0%)" fill-opacity="1">
<use xlink:href="#glyph-1-2" x="308.775548" y="115.26064"/>
</g>
<g fill="rgb(0%, 0%, 0%)" fill-opacity="1">
<use xlink:href="#glyph-6-1" x="311.919527" y="115.26064"/>
</g>
<path fill="none" stroke-width="0.84683" stroke-linecap="round" stroke-linejoin="round" stroke="rgb(16.471863%, 33.724976%, 50.193787%)" stroke-opacity="1" stroke-miterlimit="10" d="M 55.276209 0.000565756 C 55.276209 30.527239 30.529619 55.277748 0.845466 55.277748 " transform="matrix(0.996823, 0, 0, -0.996823, 221.321283, 90.164626)"/>
<path fill="none" stroke-width="0.84683" stroke-linecap="round" stroke-linejoin="round" stroke="rgb(16.471863%, 33.724976%, 50.193787%)" stroke-opacity="1" stroke-miterlimit="10" d="M -2.60868 3.200009 C -2.134518 1.279846 -1.07255 0.374627 0.00117375 -0.00156847 C -1.07255 -0.373845 -2.134518 -1.279065 -2.60868 -3.199228 " transform="matrix(-0.996823, 0, 0, 0.996823, 221.743358, 35.064063)"/>
<path fill="none" stroke-width="0.84683" stroke-linecap="round" stroke-linejoin="round" stroke="rgb(16.471863%, 33.724976%, 50.193787%)" stroke-opacity="1" stroke-miterlimit="10" d="M -55.274237 0.000565756 C -55.274237 -30.530026 -30.527647 -55.276617 -0.847413 -55.276617 " transform="matrix(0.996823, 0, 0, -0.996823, 221.321283, 90.164626)"/>
<path fill="none" stroke-width="0.84683" stroke-linecap="round" stroke-linejoin="round" stroke="rgb(16.471863%, 33.724976%, 50.193787%)" stroke-opacity="1" stroke-miterlimit="10" d="M -2.610627 3.201141 C -2.132546 1.280978 -1.070578 0.37184 -0.000772957 -0.00043696 C -1.070578 -0.372713 -2.132546 -1.281852 -2.610627 -3.202015 " transform="matrix(0.996823, 0, 0, -0.996823, 220.899208, 145.265189)"/>
<g fill="rgb(16.499329%, 33.699036%, 50.19989%)" fill-opacity="1">
<use xlink:href="#glyph-7-0" x="277.143366" y="52.860522"/>
<use xlink:href="#glyph-7-1" x="286.081279" y="52.860522"/>
<use xlink:href="#glyph-7-2" x="295.019192" y="52.860522"/>
</g>
<g fill="rgb(16.499329%, 33.699036%, 50.19989%)" fill-opacity="1">
<use xlink:href="#glyph-7-0" x="139.532959" y="133.391852"/>
<use xlink:href="#glyph-7-1" x="148.470872" y="133.391852"/>
<use xlink:href="#glyph-7-2" x="157.408785" y="133.391852"/>
</g>
<g fill="rgb(0%, 0%, 0%)" fill-opacity="1">
<use xlink:href="#glyph-1-0" x="172.4331" y="179.014443"/>
</g>
<g fill="rgb(0%, 0%, 0%)" fill-opacity="1">
<use xlink:href="#glyph-2-0" x="176.857997" y="175.217545"/>
</g>
<g fill="rgb(0%, 0%, 0%)" fill-opacity="1">
<use xlink:href="#glyph-6-2" x="183.547675" y="179.014443"/>
</g>
<g fill="rgb(0%, 0%, 0%)" fill-opacity="1">
<use xlink:href="#glyph-1-2" x="193.243772" y="179.014443"/>
</g>
<g fill="rgb(0%, 0%, 0%)" fill-opacity="1">
<use xlink:href="#glyph-6-3" x="197.068581" y="179.014443"/>
</g>
<g fill="rgb(0%, 0%, 0%)" fill-opacity="1">
<use xlink:href="#glyph-1-0" x="196.387751" y="179.014443"/>
</g>
<g fill="rgb(0%, 0%, 0%)" fill-opacity="1">
<use xlink:href="#glyph-5-1" x="200.491671" y="180.074066"/>
</g>
<g fill="rgb(0%, 0%, 0%)" fill-opacity="1">
<use xlink:href="#glyph-1-3" x="204.816886" y="179.014443"/>
</g>
<g fill="rgb(0%, 0%, 0%)" fill-opacity="1">
<use xlink:href="#glyph-1-4" x="226.7684" y="179.014443"/>
<use xlink:href="#glyph-1-0" x="231.52337" y="179.014443"/>
</g>
<g fill="rgb(0%, 0%, 0%)" fill-opacity="1">
<use xlink:href="#glyph-2-0" x="235.959627" y="175.217545"/>
</g>
<g fill="rgb(0%, 0%, 0%)" fill-opacity="1">
<use xlink:href="#glyph-6-2" x="242.649306" y="179.014443"/>
</g>
<g fill="rgb(0%, 0%, 0%)" fill-opacity="1">
<use xlink:href="#glyph-1-2" x="252.345402" y="179.014443"/>
</g>
<g fill="rgb(0%, 0%, 0%)" fill-opacity="1">
<use xlink:href="#glyph-1-4" x="257.010993" y="179.014443"/>
</g>
<g fill="rgb(0%, 0%, 0%)" fill-opacity="1">
<use xlink:href="#glyph-6-3" x="262.461161" y="179.014443"/>
</g>
<g fill="rgb(0%, 0%, 0%)" fill-opacity="1">
<use xlink:href="#glyph-1-0" x="261.779334" y="179.014443"/>
</g>
<g fill="rgb(0%, 0%, 0%)" fill-opacity="1">
<use xlink:href="#glyph-5-1" x="265.884251" y="180.074066"/>
</g>
</svg>
