<?xml version="1.0" encoding="UTF-8"?>
<svg xmlns="http://www.w3.org/2000/svg" xmlns:xlink="http://www.w3.org/1999/xlink" width="267.77pt" height="157.65pt" viewBox="0 0 267.77 157.65">
<defs>
<g>
<g id="glyph-0-0">
<path d="M 0.171875 -1.078125 C 0.15625 -1.046875 0.125 -1.015625 0.125 -0.96875 C 0.125 -0.921875 0.1875 -0.828125 0.25 -0.828125 C 0.3125 -0.828125 0.34375 -0.859375 0.640625 -1.171875 C 0.734375 -1.234375 0.953125 -1.453125 1.03125 -1.53125 C 1.140625 -0.671875 1.453125 0.125 2.25 0.125 C 2.6875 0.125 3.078125 -0.125 3.296875 -0.28125 C 3.453125 -0.390625 3.96875 -0.8125 3.96875 -0.921875 C 3.96875 -0.953125 3.9375 -1.0625 3.828125 -1.0625 C 3.796875 -1.0625 3.796875 -1.046875 3.6875 -0.953125 C 3 -0.265625 2.59375 -0.109375 2.28125 -0.109375 C 1.78125 -0.109375 1.609375 -0.671875 1.609375 -1.53125 C 1.609375 -1.59375 1.640625 -2.09375 1.671875 -2.140625 C 1.6875 -2.171875 1.6875 -2.203125 1.90625 -2.421875 C 2.78125 -3.296875 4.328125 -5.140625 4.328125 -6.828125 C 4.328125 -7.015625 4.328125 -7.671875 3.6875 -7.671875 C 2.78125 -7.671875 1.984375 -5.875 1.875 -5.625 C 1.34375 -4.4375 1.015625 -3.171875 1.015625 -1.875 Z M 1.71875 -2.609375 C 1.75 -2.71875 2.203125 -5.140625 2.828125 -6.421875 C 3.125 -7 3.359375 -7.4375 3.703125 -7.4375 C 4.078125 -7.4375 4.078125 -7.046875 4.078125 -6.875 C 4.078125 -5.046875 2.25 -3.140625 1.71875 -2.609375 Z M 1.71875 -2.609375 "/>
</g>
<g id="glyph-0-1">
<path d="M 0.484375 1.328125 C 0.40625 1.703125 0.375 1.78125 -0.09375 1.78125 C -0.234375 1.78125 -0.34375 1.78125 -0.34375 1.984375 C -0.34375 2.0625 -0.296875 2.109375 -0.203125 2.109375 C 0.09375 2.109375 0.40625 2.078125 0.703125 2.078125 C 1.0625 2.078125 1.4375 2.109375 1.78125 2.109375 C 1.84375 2.109375 1.984375 2.109375 1.984375 1.890625 C 1.984375 1.78125 1.875 1.78125 1.71875 1.78125 C 1.171875 1.78125 1.171875 1.703125 1.171875 1.59375 C 1.171875 1.46875 1.640625 -0.3125 1.703125 -0.578125 C 1.84375 -0.265625 2.15625 0.125 2.71875 0.125 C 3.96875 0.125 5.34375 -1.46875 5.34375 -3.078125 C 5.34375 -4.09375 4.71875 -4.8125 3.890625 -4.8125 C 3.34375 -4.8125 2.828125 -4.421875 2.46875 -4 C 2.359375 -4.578125 1.890625 -4.8125 1.484375 -4.8125 C 0.984375 -4.8125 0.765625 -4.390625 0.671875 -4.1875 C 0.484375 -3.828125 0.34375 -3.171875 0.34375 -3.140625 C 0.34375 -3.03125 0.453125 -3.03125 0.46875 -3.03125 C 0.578125 -3.03125 0.59375 -3.03125 0.65625 -3.28125 C 0.84375 -4.046875 1.0625 -4.578125 1.453125 -4.578125 C 1.640625 -4.578125 1.78125 -4.484375 1.78125 -4.078125 C 1.78125 -3.828125 1.75 -3.703125 1.703125 -3.515625 Z M 2.40625 -3.390625 C 2.484375 -3.6875 2.78125 -4 2.96875 -4.15625 C 3.359375 -4.5 3.671875 -4.578125 3.859375 -4.578125 C 4.296875 -4.578125 4.546875 -4.1875 4.546875 -3.546875 C 4.546875 -2.90625 4.1875 -1.65625 4 -1.234375 C 3.625 -0.484375 3.109375 -0.125 2.703125 -0.125 C 1.984375 -0.125 1.84375 -1.03125 1.84375 -1.09375 C 1.84375 -1.109375 1.84375 -1.125 1.875 -1.265625 Z M 2.40625 -3.390625 "/>
</g>
<g id="glyph-0-2">
<path d="M 3.125 -7.4375 C 3.125 -7.453125 3.125 -7.5625 2.984375 -7.5625 C 2.734375 -7.5625 1.9375 -7.46875 1.65625 -7.453125 C 1.5625 -7.4375 1.453125 -7.421875 1.453125 -7.234375 C 1.453125 -7.09375 1.546875 -7.09375 1.703125 -7.09375 C 2.234375 -7.09375 2.25 -7.03125 2.25 -6.921875 L 2.21875 -6.703125 L 0.640625 -0.421875 C 0.59375 -0.265625 0.59375 -0.25 0.59375 -0.1875 C 0.59375 0.0625 0.8125 0.125 0.921875 0.125 C 1.0625 0.125 1.21875 0.015625 1.28125 -0.109375 C 1.34375 -0.203125 1.828125 -2.21875 1.890625 -2.5 C 2.265625 -2.46875 3.15625 -2.28125 3.15625 -1.5625 C 3.15625 -1.484375 3.15625 -1.453125 3.125 -1.34375 C 3.109375 -1.203125 3.078125 -1.078125 3.078125 -0.953125 C 3.078125 -0.3125 3.515625 0.125 4.078125 0.125 C 4.40625 0.125 4.703125 -0.046875 4.9375 -0.453125 C 5.21875 -0.9375 5.34375 -1.53125 5.34375 -1.5625 C 5.34375 -1.671875 5.234375 -1.671875 5.203125 -1.671875 C 5.09375 -1.671875 5.09375 -1.625 5.046875 -1.46875 C 4.828125 -0.671875 4.578125 -0.125 4.109375 -0.125 C 3.90625 -0.125 3.75 -0.234375 3.75 -0.625 C 3.75 -0.8125 3.796875 -1.0625 3.84375 -1.234375 C 3.890625 -1.421875 3.890625 -1.46875 3.890625 -1.578125 C 3.890625 -2.28125 3.203125 -2.609375 2.28125 -2.71875 C 2.609375 -2.921875 2.96875 -3.265625 3.21875 -3.53125 C 3.734375 -4.109375 4.234375 -4.578125 4.765625 -4.578125 C 4.828125 -4.578125 4.84375 -4.578125 4.875 -4.5625 C 5 -4.546875 5.015625 -4.546875 5.09375 -4.46875 C 5.125 -4.46875 5.125 -4.453125 5.140625 -4.4375 C 4.625 -4.40625 4.515625 -3.96875 4.515625 -3.84375 C 4.515625 -3.671875 4.640625 -3.46875 4.9375 -3.46875 C 5.21875 -3.46875 5.53125 -3.703125 5.53125 -4.125 C 5.53125 -4.453125 5.28125 -4.8125 4.796875 -4.8125 C 4.484375 -4.8125 3.984375 -4.734375 3.203125 -3.859375 C 2.828125 -3.4375 2.40625 -3 2 -2.84375 Z M 3.125 -7.4375 "/>
</g>
<g id="glyph-1-0">
<path d="M 4.453125 -2.5 L 7.5 -2.5 C 7.640625 -2.5 7.859375 -2.5 7.859375 -2.71875 C 7.859375 -2.9375 7.640625 -2.9375 7.5 -2.9375 L 4.453125 -2.9375 L 4.453125 -5.984375 C 4.453125 -6.140625 4.453125 -6.34375 4.234375 -6.34375 C 4.015625 -6.34375 4.015625 -6.140625 4.015625 -5.984375 L 4.015625 -2.9375 L 0.96875 -2.9375 C 0.8125 -2.9375 0.609375 -2.9375 0.609375 -2.71875 C 0.609375 -2.5 0.8125 -2.5 0.96875 -2.5 L 4.015625 -2.5 L 4.015625 0.546875 C 4.015625 0.703125 4.015625 0.90625 4.234375 0.90625 C 4.453125 0.90625 4.453125 0.703125 4.453125 0.546875 Z M 4.453125 -2.5 "/>
</g>
<g id="glyph-2-0">
<path d="M 2.015625 -3.28125 C 2.078125 -3.40625 2.078125 -3.453125 2.078125 -3.5 C 2.078125 -3.71875 1.890625 -3.890625 1.671875 -3.890625 C 1.40625 -3.890625 1.328125 -3.671875 1.28125 -3.5625 L 0.375 -0.546875 C 0.359375 -0.53125 0.328125 -0.4375 0.328125 -0.4375 C 0.328125 -0.359375 0.546875 -0.28125 0.609375 -0.28125 C 0.65625 -0.28125 0.65625 -0.296875 0.703125 -0.40625 Z M 2.015625 -3.28125 "/>
</g>
</g>
</defs>
<path fill="none" stroke-width="0.69739" stroke-linecap="round" stroke-linejoin="round" stroke="rgb(0%, 0%, 0%)" stroke-opacity="1" stroke-miterlimit="10" d="M -0.00163828 -0.001098 L 255.118188 -0.001098 " transform="matrix(0.997785, 0, 0, -0.997785, 6.493822, 91.592654)"/>
<path fill="none" stroke-width="0.69739" stroke-linecap="round" stroke-linejoin="round" stroke="rgb(0%, 0%, 0%)" stroke-opacity="1" stroke-miterlimit="10" d="M 8.505488 -0.001098 L 26.788175 -0.001098 " transform="matrix(0.997785, 0, 0, -0.997785, 6.493822, 91.592654)"/>
<path fill-rule="nonzero" fill="rgb(0%, 0%, 0%)" fill-opacity="1" d="M 37.605469 91.59375 C 36.308594 91.347656 34.195312 90.617188 32.734375 89.765625 L 32.734375 93.417969 C 34.195312 92.566406 36.308594 91.835938 37.605469 91.59375 "/>
<path fill="none" stroke-width="0.69739" stroke-linecap="round" stroke-linejoin="round" stroke="rgb(0%, 0%, 0%)" stroke-opacity="1" stroke-miterlimit="10" d="M 68.031881 -0.001098 L 97.656098 -0.001098 " transform="matrix(0.997785, 0, 0, -0.997785, 6.493822, 91.592654)"/>
<path fill-rule="nonzero" fill="rgb(0%, 0%, 0%)" fill-opacity="1" d="M 108.316406 91.59375 C 107.015625 91.347656 104.90625 90.617188 103.445312 89.765625 L 103.445312 93.417969 C 104.90625 92.566406 107.015625 91.835938 108.316406 91.59375 "/>
<path fill="none" stroke-width="0.69739" stroke-linecap="round" stroke-linejoin="round" stroke="rgb(0%, 0%, 0%)" stroke-opacity="1" stroke-miterlimit="10" d="M 153.071824 -0.001098 L 182.696041 -0.001098 " transform="matrix(0.997785, 0, 0, -0.997785, 6.493822, 91.592654)"/>
<path fill-rule="nonzero" fill="rgb(0%, 0%, 0%)" fill-opacity="1" d="M 193.167969 91.59375 C 191.867188 91.347656 189.757812 90.617188 188.296875 89.765625 L 188.296875 93.417969 C 189.757812 92.566406 191.867188 91.835938 193.167969 91.59375 "/>
<path fill="none" stroke-width="0.69739" stroke-linecap="round" stroke-linejoin="round" stroke="rgb(0%, 0%, 0%)" stroke-opacity="1" stroke-miterlimit="10" d="M 223.939747 -0.001098 L 242.222434 -0.001098 " transform="matrix(0.997785, 0, 0, -0.997785, 6.493822, 91.592654)"/>
<path fill-rule="nonzero" fill="rgb(0%, 0%, 0%)" fill-opacity="1" d="M 252.5625 91.59375 C 251.265625 91.347656 249.152344 90.617188 247.691406 89.765625 L 247.691406 93.417969 C 249.152344 92.566406 251.265625 91.835938 252.5625 91.59375 "/>
<path fill="none" stroke-width="0.69739" stroke-linecap="round" stroke-linejoin="round" stroke="rgb(0%, 0%, 0%)" stroke-opacity="1" stroke-dasharray="2.09218 1.79329" stroke-miterlimit="10" d="M 212.598217 -0.001098 C 212.598217 46.966225 174.525598 85.038844 127.558275 85.038844 C 80.590952 85.038844 42.518333 46.966225 42.518333 -0.001098 " transform="matrix(0.997785, 0, 0, -0.997785, 6.493822, 91.592654)"/>
<path fill="none" stroke-width="0.69739" stroke-linecap="round" stroke-linejoin="round" stroke="rgb(0%, 0%, 0%)" stroke-opacity="1" stroke-miterlimit="10" d="M 142.325362 83.74692 C 132.561546 85.469486 122.558919 85.469486 117.121092 84.51033 " transform="matrix(0.997785, 0, 0, -0.997785, 6.493822, 91.592654)"/>
<path fill-rule="nonzero" fill="rgb(0%, 0%, 0%)" fill-opacity="1" d="M 119.039062 8.03125 C 120.359375 8.042969 122.5625 8.398438 124.152344 8.984375 L 123.515625 5.386719 C 122.226562 6.480469 120.273438 7.566406 119.039062 8.03125 "/>
<path fill="none" stroke-width="0.69739" stroke-linecap="round" stroke-linejoin="round" stroke="rgb(0%, 0%, 0%)" stroke-opacity="1" stroke-dasharray="2.09218 1.79329" stroke-miterlimit="10" d="M 127.558275 -59.527492 L 127.558275 -0.001098 " transform="matrix(0.997785, 0, 0, -0.997785, 6.493822, 91.592654)"/>
<path fill="none" stroke-width="0.69739" stroke-linecap="round" stroke-linejoin="round" stroke="rgb(0%, 0%, 0%)" stroke-opacity="1" stroke-miterlimit="10" d="M 127.558275 -48.189877 L 127.558275 -24.234467 " transform="matrix(0.997785, 0, 0, -0.997785, 6.493822, 91.592654)"/>
<path fill-rule="nonzero" fill="rgb(0%, 0%, 0%)" fill-opacity="1" d="M 133.769531 111.390625 C 133.527344 112.691406 132.796875 114.800781 131.945312 116.261719 L 135.597656 116.261719 C 134.746094 114.800781 134.015625 112.691406 133.769531 111.390625 "/>
<path fill-rule="nonzero" fill="rgb(0%, 0%, 0%)" fill-opacity="1" d="M 50.476562 91.59375 C 50.476562 90.734375 49.777344 90.035156 48.917969 90.035156 C 48.058594 90.035156 47.363281 90.734375 47.363281 91.59375 C 47.363281 92.453125 48.058594 93.148438 48.917969 93.148438 C 49.777344 93.148438 50.476562 92.453125 50.476562 91.59375 Z M 50.476562 91.59375 "/>
<path fill-rule="nonzero" fill="rgb(0%, 0%, 0%)" fill-opacity="1" d="M 135.328125 91.59375 C 135.328125 90.734375 134.628906 90.035156 133.769531 90.035156 C 132.914062 90.035156 132.214844 90.734375 132.214844 91.59375 C 132.214844 92.453125 132.914062 93.148438 133.769531 93.148438 C 134.628906 93.148438 135.328125 92.453125 135.328125 91.59375 Z M 135.328125 91.59375 "/>
<path fill-rule="nonzero" fill="rgb(0%, 0%, 0%)" fill-opacity="1" d="M 220.179688 91.59375 C 220.179688 90.734375 219.480469 90.035156 218.621094 90.035156 C 217.765625 90.035156 217.066406 90.734375 217.066406 91.59375 C 217.066406 92.453125 217.765625 93.148438 218.621094 93.148438 C 219.480469 93.148438 220.179688 92.453125 220.179688 91.59375 Z M 220.179688 91.59375 "/>
<g fill="rgb(0%, 0%, 0%)" fill-opacity="1">
<use xlink:href="#glyph-0-0" x="131.503288" y="24.662247"/>
</g>
<g fill="rgb(0%, 0%, 0%)" fill-opacity="1">
<use xlink:href="#glyph-0-1" x="20.726225" y="80.158041"/>
</g>
<g fill="rgb(0%, 0%, 0%)" fill-opacity="1">
<use xlink:href="#glyph-0-1" x="79.687325" y="80.158041"/>
</g>
<g fill="rgb(0%, 0%, 0%)" fill-opacity="1">
<use xlink:href="#glyph-1-0" x="87.582796" y="80.158041"/>
</g>
<g fill="rgb(0%, 0%, 0%)" fill-opacity="1">
<use xlink:href="#glyph-0-0" x="98.46763" y="80.158041"/>
</g>
<g fill="rgb(0%, 0%, 0%)" fill-opacity="1">
<use xlink:href="#glyph-0-1" x="163.14504" y="80.158041"/>
</g>
<g fill="rgb(0%, 0%, 0%)" fill-opacity="1">
<use xlink:href="#glyph-2-0" x="168.62188" y="76.208808"/>
</g>
<g fill="rgb(0%, 0%, 0%)" fill-opacity="1">
<use xlink:href="#glyph-1-0" x="173.829319" y="80.158041"/>
</g>
<g fill="rgb(0%, 0%, 0%)" fill-opacity="1">
<use xlink:href="#glyph-0-0" x="184.714154" y="80.158041"/>
</g>
<g fill="rgb(0%, 0%, 0%)" fill-opacity="1">
<use xlink:href="#glyph-0-1" x="239.945534" y="80.158041"/>
</g>
<g fill="rgb(0%, 0%, 0%)" fill-opacity="1">
<use xlink:href="#glyph-2-0" x="245.422375" y="76.208808"/>
</g>
<g fill="rgb(0%, 0%, 0%)" fill-opacity="1">
<use xlink:href="#glyph-0-2" x="143.089565" y="129.312911"/>
</g>
</svg>
